# xmcd
#
# Track frame offsets:
# 150
# 15300
# 32718
# 47867
# 62858
# 73272
# 85821
# 103952
# 117200
# 135422
# 148129
# 166969
# 179865
#
# Disc length: 2634 seconds
#
#
# Revision: 6
# Processed by: cddbd v1.5.1PL0 Copyright (c) Steve Scherf et al.
# Submitted via: FreeRIP 2.942 
#
DISCID=bf0a480d
DTITLE=Chrystian and Ralf - Chrystian and Ralf - Viajando Pelo Brasil
DYEAR=2003
DGENRE=Sertanejo
TTITLE0=Escravo Do Amo
TTITLE1=Quem Será Seu Outro Amor
TTITLE2=Onde Você For Eu Vou
TTITLE3=Telefone Mudo
TTITLE4=Naquela Rua Não Passo Mais
TTITLE5=Do Mundo Nada Se Leva
TTITLE6=Luz Da Minha Vida
TTITLE7=Vestido De Seda
TTITLE8=Tribuna Do Amor
TTITLE9=Quarto Vizinho
TTITLE10=Toalha Molhada
TTITLE11=A Semente Do Amor
TTITLE12=Último Adeus
EXTD=
EXTT0=
EXTT1=
EXTT2=
EXTT3=
EXTT4=
EXTT5=
EXTT6=
EXTT7=
EXTT8=
EXTT9=
EXTT10=
EXTT11=
EXTT12=
PLAYORDER=
